<svg version="1.1" preserveAspectRatio="none" xmlns="http://www.w3.org/2000/svg" width="500" height="500" viewBox="0 0 500 500"><rect width="100%" height="100%" fill="#EBE3E3" fill-opacity="1"/><svg viewBox="1538.3736 1273.0904 565.4118 140" width="417" height="103.25217832383406" x="41.5px" y="198.3739px" xmlns="http://www.w3.org/2000/svg" xmlns:xlink="http://www.w3.org/1999/xlink" preserveAspectRatio="none"><defs></defs>
              <style>.background {fill:#EBE3E3;fill-opacity:1;}.icon1 {fill:#E13737;fill-opacity:1;}.icon1-str {stroke:#E13737;stroke-opacity:1;}.icon2 {fill:#EFB92A;fill-opacity:1;}.icon3 {fill:#EF8C2A;fill-opacity:1;}.icon3-str {stroke:#EF8C2A;stroke-opacity:1;}.icon4 {fill:#6B6B6B;fill-opacity:1;}.icon5 {fill:#AEAEAE;fill-opacity:1;}.icon6 {fill:#E13737;fill-opacity:1;}.icon7 {fill:#A21D1D;fill-opacity:1;}.icon8 {fill:#FDFDFD;fill-opacity:1;}</style><g opacity="1" transform="rotate(0 1674.3734 1273.0904)">
<svg width="429.412" height="140" x="1674.3734" y="1273.0904" version="1.1" preserveAspectRatio="none" viewBox="0 0 429.412 140">
  <defs><rect x="0" y="0" width="429.412" height="140" rx="0px" ry="0px" id="id-B7crM0kCi"></rect></defs><use class="icon1 icon3-str" style="stroke-width:0;" xlink:href="#id-B7crM0kCi"></use>
</svg>
</g><g opacity="1" transform="rotate(0 1821.0795 1437.0904)">
<svg width="0" height="0" x="1821.0795" y="1437.0904" version="1.1" preserveAspectRatio="none" viewBox="0 0 0 0">
  <g transform="matrix(1 0 0 1 0 0)" class="icon1"></g>
</svg>
</g><g opacity="1" transform="rotate(0 1704.3734 1303.0904)">
<svg width="369.412" height="80" x="1704.3734" y="1303.0904" version="1.1" preserveAspectRatio="none" viewBox="3.32 -31.48 146.84 31.8">
  <g transform="matrix(1 0 0 1 0 0)" class="background"><path id="id-D6z1nYkh7" d="M24.48-22.80L9.80-22.80L9.80-15.40L22.76-15.40L22.76-10.20L9.80-10.20L9.80 0L3.32 0L3.32-28L24.48-28L24.48-22.80Z M28.04 0L28.04-21.52L34.28-21.52L34.28 0L28.04 0ZM31.16-24.52Q29.44-24.52 28.36-25.52Q27.28-26.52 27.28-28L27.28-28Q27.28-29.48 28.36-30.48Q29.44-31.48 31.16-31.48L31.16-31.48Q32.88-31.48 33.96-30.52Q35.04-29.56 35.04-28.12L35.04-28.12Q35.04-26.56 33.96-25.54Q32.88-24.52 31.16-24.52L31.16-24.52Z M52.28-5.44L53.96-1.04Q53.04-0.36 51.70-0.02Q50.36 0.32 48.88 0.32L48.88 0.32Q45.04 0.32 42.94-1.64Q40.84-3.60 40.84-7.40L40.84-7.40L40.84-16.24L37.52-16.24L37.52-21.04L40.84-21.04L40.84-26.28L47.08-26.28L47.08-21.04L52.44-21.04L52.44-16.24L47.08-16.24L47.08-7.48Q47.08-6.12 47.78-5.38Q48.48-4.64 49.76-4.64L49.76-4.64Q51.24-4.64 52.28-5.44L52.28-5.44Z M77.20-28L83.60-28L83.60 0L78.28 0L64.32-17L64.32 0L57.92 0L57.92-28L63.28-28L77.20-11L77.20-28Z M110.88-10.68Q110.88-10.56 110.76-9L110.76-9L94.48-9Q94.92-7 96.56-5.84Q98.20-4.68 100.64-4.68L100.64-4.68Q102.32-4.68 103.62-5.18Q104.92-5.68 106.04-6.76L106.04-6.76L109.36-3.16Q106.32 0.32 100.48 0.32L100.48 0.32Q96.84 0.32 94.04-1.10Q91.24-2.52 89.72-5.04Q88.20-7.56 88.20-10.76L88.20-10.76Q88.20-13.92 89.70-16.46Q91.20-19 93.82-20.42Q96.44-21.84 99.68-21.84L99.68-21.84Q102.84-21.84 105.40-20.48Q107.96-19.12 109.42-16.58Q110.88-14.04 110.88-10.68L110.88-10.68ZM99.72-17.12Q97.60-17.12 96.16-15.92Q94.72-14.72 94.40-12.64L94.40-12.64L105.00-12.64Q104.68-14.68 103.24-15.90Q101.80-17.12 99.72-17.12L99.72-17.12Z M122.28 0.32Q119.60 0.32 117.04-0.34Q114.48-1 112.96-2L112.96-2L115.04-6.48Q116.48-5.56 118.52-4.98Q120.56-4.40 122.52-4.40L122.52-4.40Q126.48-4.40 126.48-6.36L126.48-6.36Q126.48-7.28 125.40-7.68Q124.32-8.08 122.08-8.36L122.08-8.36Q119.44-8.76 117.72-9.28Q116.00-9.80 114.74-11.12Q113.48-12.44 113.48-14.88L113.48-14.88Q113.48-16.92 114.66-18.50Q115.84-20.08 118.10-20.96Q120.36-21.84 123.44-21.84L123.44-21.84Q125.72-21.84 127.98-21.34Q130.24-20.84 131.72-19.96L131.72-19.96L129.64-15.52Q126.80-17.12 123.44-17.12L123.44-17.12Q121.44-17.12 120.44-16.56Q119.44-16 119.44-15.12L119.44-15.12Q119.44-14.12 120.52-13.72Q121.60-13.32 123.96-12.96L123.96-12.96Q126.60-12.52 128.28-12.02Q129.96-11.52 131.20-10.20Q132.44-8.88 132.44-6.52L132.44-6.52Q132.44-4.52 131.24-2.96Q130.04-1.40 127.74-0.54Q125.44 0.32 122.28 0.32L122.28 0.32Z M148.48-5.44L150.16-1.04Q149.24-0.36 147.90-0.02Q146.56 0.32 145.08 0.32L145.08 0.32Q141.24 0.32 139.14-1.64Q137.04-3.60 137.04-7.40L137.04-7.40L137.04-16.24L133.72-16.24L133.72-21.04L137.04-21.04L137.04-26.28L143.28-26.28L143.28-21.04L148.64-21.04L148.64-16.24L143.28-16.24L143.28-7.48Q143.28-6.12 143.98-5.38Q144.68-4.64 145.96-4.64L145.96-4.64Q147.44-4.64 148.48-5.44L148.48-5.44Z"/></g>
</svg>
</g><g opacity="1" transform="rotate(0 1538.3736 1273.0904)">
<svg width="139.9998" height="140" x="1538.3736" y="1273.0904" version="1.1" preserveAspectRatio="none" viewBox="0 0 139.9998 140">
  <defs><rect x="2.7999959999999997" y="2.7999959999999997" width="134.399808" height="134.400008" rx="0px" ry="0px" id="id-tBXipXk0b"></rect></defs><use class="background icon1-str" style="stroke-width:5.599991999999999;" xlink:href="#id-tBXipXk0b"></use>
</svg>
</g><g opacity="1" transform="rotate(0 1558.3736 1287.9182)">
<svg width="99.9998" height="110.3444" x="1558.3736" y="1287.9182" version="1.1" preserveAspectRatio="none" viewBox="27.5 20.000442504882812 145 159.9995574951172">
  <g transform="matrix(1 0 0 1 0 0)"><g><path opacity=".15" d="M172.5 171.11c0 4.91-32.46 8.89-72.5 8.89s-72.5-3.98-72.5-8.89 32.46-8.89 72.5-8.89 72.5 3.98 72.5 8.89"></path><path d="M85.848 165.832s-7.899-1.242-4.73 4.14c1.293 2.196 3.02 4.705 5.537 5.57 1.543.53 3.591.167 5.203.109 3.18-.114 6.361.042 9.537.203 1.629.083 3.259.168 4.889.219 1.398.044 3.151.333 4.454-.305l-3.444-5.75-12.904-2.438z" data-color="1" class="icon1"></path><path opacity=".08" d="M85.848 165.832s-7.899-1.242-4.73 4.14c1.293 2.196 3.02 4.705 5.537 5.57 1.543.53 3.591.167 5.203.109 3.18-.114 6.361.042 9.537.203 1.629.083 3.259.168 4.889.219 1.398.044 3.151.333 4.454-.305l-3.444-5.75-12.904-2.438z"></path><path d="M33.053 168.991c-.135.097-.085.486-.024.6.293.543 1.272.389 1.715.181.479-.224.886-.568 1.32-.864.468-.32.942-.628 1.413-.947l3.1-2.103.038-.026-4.409.889-3.154 2.269h.001Z" data-color="2" class="icon2"></path><path d="m40.615 166.476-.58.977c-.302.51-1.15 1.373-.734 2.018.542.841 1.775-.723 2.078-1.064l1.657-1.865c.007-.008.047-.066.059-.066z" data-color="2" class="icon2"></path><path d="m108.257 171.858 2.4 3.926a.81.81 0 0 0 .989.333l8.505-3.339z" data-color="3" class="icon3"></path><path opacity=".3" d="m108.257 171.858 2.4 3.926a.81.81 0 0 0 .989.333l8.505-3.339z"></path><path d="m137.083 100.593-16.03 9.432-10.699 11.591-2.728 1.816-3.839 2.554-4.875-3.953-.156-.13-1.504-1.221s-.725-.743-1.848-.087c-.355.204-.751.552-1.175 1.103a1 1 0 0 0-.07.087c-.928 1.095-1.856 2.194-2.788 3.289-1.704 2.016-3.443 4.023-5.439 5.761-2.177 1.894-4.792 3.302-7.03 5.157-1.948 1.616-3.674 3.497-5.461 5.287-5.031 5.035-10.001 9.962-16.143 13.637-2.39 1.429-5.01 2.568-7.343 4.145l-.1.065c-.161.113-.364.235-.564.374-.325.226-.642.491-.781.804-.394.921.316 1.942-.477 3.189a6.8 6.8 0 0 1-1.288 1.468c-.364.317-.751.556-.962 1.008-.126.265.282.56.438.743.239.274.477.547.668.86.226.356.542.83.945 1.021.23.109.464.204.703.3a.657.657 0 0 1 .287.991c-.178.256-.516.347-.811.252l-.473-.148a1.2 1.2 0 0 1-.433-.243l-2.312-2.038c-.078-.07-.209-.017-.209.091v.091c.013.752.226 1.481.438 2.198.204.691.564 1.464.394 2.198-.161.713-1.466 1.39-2.039-.143a32 32 0 0 1-.572-1.699c-.009-.035-.022-.069-.03-.104-.226-.738-.355-1.264-.355-1.264l-.572-1.29s-1.531-1.755-4.064-.778c-1.262.491-2.433 1.234-3.574 1.938-1.084.673-2.12 1.421-3.171 2.15a2.78 2.78 0 0 1-2.138.43.4.4 0 0 1-.065-.017.7.7 0 0 1-.169-.07c-.287-.169-.464-.517-.182-.83.208-.23.585-.378.85-.539 1.332-.804 2.693-1.551 3.964-2.45a58 58 0 0 0 1.578-1.16c.381-.287.82-.552 1.175-.895.36-.339.616-.782.919-1.173.386-.504.803-.995 1.293-1.399.455-.387.975-.595 1.384-1.047.261-.291.529-.578.794-.865 2.004-2.289 3.925-4.627 5.898-6.942 2.194-2.572 4.858-4.67 7.321-6.973 3.448-3.215 6.636-6.677 10.131-9.836 1.765-1.542 3.972-2.759 5.408-4.648 1.787-2.35 3.435-4.805 5.291-7.099 1.852-2.298 4.484-4.04 6.02-6.573 2.668-4.401 3.517-10.7 7.981-13.815 1.843-1.286 3.847-2.229 5.907-3.111.013-.004.026-.013.039-.017 1.015-.43 1.804-2.602 2.277-3.549.751-1.503 2.142-3.797 1.267-5.461-.936-1.781-2.052-3.619-3.565-4.974l-4.272-4.323-1.197-1.686-.178-.248-.287-.178s-2.962-1.79-1.062-3.619c0 0 .161-.752 1.735-.738.122 0 .525-.004.442-.087l-2.155-2.233-3.409-2.576-1.735-3.415-.451-3.189s1.943-2.824 2.004-2.841c.061-.022 1.245-.882 1.245-.882l2.611-.204c3.127-.243 6.102.456 8.566 2.511 1.162.973 3.435.343 4.762.087 0 0 2.468-.678 1.713 2.024 0 0-.265 1.368.98 1.39 0 0 .694-.043.755 1.143 0 0 1.002-.226 1.206.552.278 1.06 1.935.891 2.62 1.494 1.445 1.269-.958 3.341-1.726 4.266-.936 1.121-1.783 2.55-1.93 4.032-.156 1.594 1.01 2.802 2.065 3.827.755.739 1.414 1.599 2.298 2.19.646.43 1.423.591 2.186.652.087.009 1.201.035 1.717-.048.161-.022.265-.056.265-.104.03.083.209.547-.122-.838l-.139-.578c-.477-1.942-.269-4.166-.23-6.147.017-.825.078-1.651.126-2.476.048-.873.083-1.746.035-2.624-.182-3.215-1.796-6.208-2.888-9.184-.599-1.629-1.193-3.258-1.678-4.922a33 33 0 0 1-.62-2.468c-.165-.791-.191-1.447-.746-2.085-3.574-4.105-7.65-7.867-11.493-11.756a1057 1057 0 0 1-2.971-3.019c-.455-.443-1.366-1.338-1.817-1.781-1.466-1.438-2.655-3.354-4.762-3.189a4 4 0 0 0-.781.148c-1.674.491-4.003.534-5.755-.469 0 0-1.101-1.125-2.797-1.655a28 28 0 0 0-1.565-.447c-.178-.043-.36-.087-.538-.126-.222-.056-.473-.061-.672-.187-.243-.152-.494-.482-.433-.786.074-.382.542-.582.864-.704 1.067-.404 2.268-.122 3.24.4.165.091.368.291.577.395.1.052.204.083.299.065a.6.6 0 0 0 .235-.096c.096-.056.156-.143.1-.256-.022-.048-.065-.082-.104-.122-.664-.665-1.362-1.303-2.035-1.964l-.004-.004c-.104-.1-.204-.196-.307-.3l-2.429-2.246-2.186-1.864-3.079-2.229s-1.327-1.286.1-1.859c.017-.004.074-.23.096-.261.117-.187.287-.256.507-.243.442.035.893.439 1.201.721 1.18 1.099 2.854 1.651 4.298 2.337l3.287 1.434c2.017.738 4.02 1.529 5.99 2.394.72.321 1.44.647 2.138 1.012.638.33 1.24.847 1.909 1.082 1.015.365 1.969.917 2.884 1.481 1.769 1.09 3.339 2.45 5.036 3.641 1.552 1.09 3.149 2.111 4.732 3.145 1.722 1.125 3.409 2.211 4.949 3.58 1.062.943 2.12 1.885 3.184 2.828.923.821 1.891 1.594 2.784 2.446q.268.253.542.5c.312.295.616.6.864.947.403.565.542 1.203.738 1.855.312 1.056.616 2.02 1.267 2.867q.148.195.32.378c1.496 1.59 2.385 3.662 3.357 5.595.945 1.885 1.804 3.819 2.81 5.674.742 1.364 1.401 2.772 1.917 4.236 1.193 3.384 2.107 6.851 3.032 10.313.407 1.525.82 3.045 1.31 4.544.243.734.39 1.516.768 2.19.764 1.368 1.809 2.58 2.68 3.879 1.058 1.573 2.164 3.197 2.94 4.935l2.94 6.577h-.007Z" data-color="4" class="icon4"></path><path d="m142.378 133.42-13.653 4.249-7.759 1.638h-12.204c0-.017.004-.03.004-.048l.091-.947c.004-.026.004-.056.009-.083l.104-1.112a1 1 0 0 1 .017-.096c.013-.061.035-.122.052-.182q.02-.05.035-.109a.3.3 0 0 0 .026-.096c.013-.052.026-.113.035-.174q.007-.034.009-.074c.009-.061.013-.126.022-.196.013-.135.017-.265.017-.4a12 12 0 0 0 0-.526c0-.087 0-.169-.004-.256a6 6 0 0 0-.009-.287l-.013-.226q0-.06-.009-.126-.014-.238-.032-.478l-.028-.356a1 1 0 0 0-.009-.109c-.017-.209-.039-.391-.052-.539 0-.009-.004-.022-.004-.03l-.004-.043-.013-.104a3 3 0 0 0-.017-.174l.143-1.16 8.127-8.51 8.179-3.224 3.591-1.416s10.613-3.762 11.757-2.168c.303.426.533 1.269.703 2.272.464 2.75.499 6.725.499 6.725l.39 8.363z" data-color="4" class="icon4"></path><path opacity=".2" d="M114.976 52.19c-.915-.356-2.65-1.251-2.919-2.998a8 8 0 0 1 .052-2.672c.312.295.616.6.864.947.403.565.542 1.203.738 1.855.312 1.056.616 2.02 1.267 2.867Z"></path><path opacity=".2" d="m119.955 89.903-5.235-3.085-1.83-.917c.161-.022.265-.056.265-.104.03.083.209.547-.122-.838 1.913.691 9.082 3.432 10.639 6.247 1.796 3.25-3.717-1.303-3.717-1.303"></path><path opacity=".2" d="m120.432 82.589-5.004-5.08c-.161-.163.016-.43.229-.345l4.254 1.692c.65.259 1.104.857 1.178 1.554l.189 1.779a.496.496 0 0 1-.846.401Z"></path><path opacity=".2" d="M87.856 29.622c-.396.024-.65.395-.897.659a5.5 5.5 0 0 0-1.092 1.729c-.122.304-.221.62-.284.942a4 4 0 0 0-.069.566c-.004.093.072.5.028.558a.9.9 0 0 0 .14-.247c.272-.76.542-1.525.913-2.243.185-.358.394-.703.639-1.024.221-.29.597-.542.622-.939Z"></path><path opacity=".2" d="M85.443 30.483c-.109.128-.269.202-.429.25-.948.283-2.017.008-2.733-.668-.591-.557-.952-1.311-1.253-2.053-.059-.146-.193-.358-.159-.522.028-.135.063-.127.162-.006.142.173.231.382.327.582.248.513.556 1.002.959 1.405.52.519 1.17.825 1.892.936.407.063.824.024 1.232.077h.002Z"></path><path opacity=".2" d="M78.84 33.688c-.043-.617-.542-1.742-.855-2.389.1.052.204.083.299.065a.6.6 0 0 0 .235-.096c.685 1.173.381 3.267.32 2.42Z"></path><path opacity=".2" d="M75.317 25.489a2.57 2.57 0 0 1 1.159 2.152v1.281c-.104-.1-.204-.196-.307-.3l-2.429-2.246-2.186-1.864-3.08-2.229s-1.327-1.286.1-1.859c.1.704.464 1.79 1.674 2.203 1.253.427 3.641 1.927 5.068 2.862Z"></path><path opacity=".2" d="M112.79 75.758c.048-.873.083-1.746.035-2.624-.182-3.215-1.796-6.208-2.888-9.184-.599-1.629-1.193-3.258-1.678-4.922a33 33 0 0 1-.62-2.468c-.165-.791-.191-1.447-.746-2.085-3.574-4.105-7.65-7.868-11.493-11.756a1057 1057 0 0 1-2.971-3.019 617 617 0 0 1-1.817-1.781c-1.466-1.438-2.655-3.354-4.762-3.189l.616-.337a1.7 1.7 0 0 1 1.798.106l2.364 1.683a6.5 6.5 0 0 1 1.784 1.922l.475.785a5.2 5.2 0 0 0 1.342 1.481c1.61 1.199 3.233 2.384 4.761 3.688 2.065 1.761 4.042 3.634 6.11 5.385l.623.579 1.261 1.294a4.17 4.17 0 0 1 1.166 2.547l.065.752a7.1 7.1 0 0 0 .834 2.777l1.275 2.349c.513.945.909 1.95 1.18 2.992l1.154 4.444.724 2.385a6.8 6.8 0 0 1 .067 3.712l-.656 2.483h-.002Z"></path><path opacity=".2" d="m95.891 79.703 2.74.508a3.14 3.14 0 0 0 1.834-.206 16 16 0 0 0 1.973-1.001c.327-.2.646-.418.946-.657.247-.197.67-.43.769-.743-.56.09-1.135.461-1.645.7-.686.321-1.365.703-2.08.953-.884.31-1.858.251-2.78.281l-1.747.058c-.064.002-.071.095-.008.107Z"></path><path opacity=".2" d="M106.742 92.89a1.19 1.19 0 0 1-.06 1.922l-6.747 4.579-4.168 2.546a1.3 1.3 0 0 1-.975.16l-.421-.095c.013-.004.026-.013.039-.017 1.015-.43 1.804-2.602 2.277-3.549.751-1.503 2.142-3.797 1.267-5.461-.936-1.781-2.052-3.619-3.565-4.974l-4.272-4.323-1.197-1.686c1.101.061 3.748.048 5.465-1.308 1.962-1.546 3.964 4.036 4.451 5.231.574 1.413 1.561 2.569 2.814 3.424 1.708 1.166 3.472 2.266 5.093 3.551Z"></path><path opacity=".2" d="m108.204 95.964-1.688.831a3.28 3.28 0 0 0-1.621 1.787l-.702 1.857c-.093.246.225.436.397.239l3.85-4.407c.142-.162-.042-.403-.236-.307"></path><path opacity=".2" d="M106.629 90.68c.837.833 2.271 2.212 3.384 3.031.323.238.745-.135.552-.488-.482-.885-1.168-2.09-1.73-2.873-.188-.261-.533-.319-.816-.166-.249.135-.63.23-1.184.114-.22-.046-.366.222-.208.381Z"></path><path opacity=".2" d="m98.316 81.937 3.726 3.461c.457.425 1.2.1 1.2-.525V81.19a.528.528 0 0 0-.728-.493c-1.004.412-2.828 1.063-4.055.93-.174-.019-.271.191-.143.309Z"></path><path opacity=".2" d="M119.559 106.476s-2.361-3.655-3.375-6.222c-.114-.288-.537-.205-.538.105-.005 2.15.339 5.654 2.506 6.915 3.215 1.871 1.409-.797 1.409-.797h-.001Z"></path><path opacity=".2" d="M119.436 90.362s3.184-.276 1.256 10.856l1.653-6.486V90.96l-2.908-.598Z"></path><path d="m98.925 121.899-.043.052-.157-.13z" data-color="5" class="icon5"></path><path opacity=".2" d="m107.503 123.233-3.492-4.493-.086-.051-4.076-.673-.084-.048c-.261-.325-2.045-2.621-2.28-4.849-.041-.389-.467-.601-.815-.423-.686.351-1.891.749-3.951.901-.41.03-.468.612-.07.715 1.695.438 3.393.992 2.879 1.359 0 0-2.882 2.638-5.738 3.996-.384.183-.29.759.134.806l.063.007c1.289.149 1.865 1.703.989 2.66l-4.217 4.609a9.3 9.3 0 0 1-2.129 1.73l-5.837 3.453a8 8 0 0 0-.842.568l-3.216 2.456a21 21 0 0 0-1.959 1.702l-2.045 2.017a19 19 0 0 0-2.361 2.834l-.615.905a20.9 20.9 0 0 1-5.245 5.335l-6.553 4.618q-.259.183-.503.384l-.631.519-1.499 1.234-1.778 1.463-1.091.898a18 18 0 0 0-1.032.915c-.129.126-.35.321-.495.428l-.51.376-1.022.754c-.448.331-.77.808-.899 1.35-.275 1.148-.857 3.223-1.697 4.393-.403.56-.412 1.169-.243 1.725v-.091c0-.109.13-.161.208-.091l2.312 2.037c.126.109.278.196.433.243l.472.148c.298.093.64.002.815-.257a.656.656 0 0 0-.29-.985 13 13 0 0 1-.703-.3c-.403-.191-.72-.665-.945-1.021-.191-.313-.429-.586-.668-.86-.156-.182-.564-.478-.438-.743.213-.452.599-.691.962-1.008.49-.426.936-.917 1.288-1.468.794-1.247.083-2.268.477-3.189.139-.313.455-.578.781-.804.2-.139.403-.261.564-.374l.1-.065c2.333-1.577 4.953-2.715 7.343-4.145 6.142-3.675 11.111-8.602 16.143-13.637 1.787-1.79 3.513-3.671 5.461-5.287 2.238-1.855 4.853-3.263 7.03-5.157 1.995-1.738 3.734-3.745 5.439-5.761.932-1.095 1.861-2.194 2.788-3.289q.032-.047.069-.087.162-.21.317-.381c.051-.056.1-.101.149-.152.053-.053.106-.111.157-.158.054-.05.106-.089.159-.133.044-.036.089-.076.133-.108q.102-.073.201-.132c1.157-.715 1.909.047 1.909.047l6.457 5.241a.14.14 0 0 0 .163.008l3.63-2.416a.14.14 0 0 0 .033-.2v.002Z"></path><path opacity=".2" d="M42.777 169.164v1.173c-.226-.738-.355-1.264-.355-1.264l-.572-1.29s-1.531-1.755-4.064-.778c-1.262.491-2.433 1.234-3.574 1.938-1.084.673-2.12 1.421-3.171 2.15a2.78 2.78 0 0 1-2.138.43.4.4 0 0 1-.065-.017.7.7 0 0 1-.169-.07c.837-.226 2.485-.799 3.804-1.985 1.63-1.464 2.967-2.276 3.426-2.537.1-.057.195-.104.299-.152l2.702-1.234.855-.235c.442-.117.915.004 1.241.326l.581.573c.386.382.659.86.794 1.386z"></path><path opacity=".2" d="M141.488 118.333c-4.945.652-10.175 3.619-10.175 3.619l-7.524 4.666a13.1 13.1 0 0 0-5.387 6.625 81 81 0 0 0-1.939 6.065h-7.703c0-.017.004-.03.004-.048l.091-.947c.004-.026.004-.056.009-.083l.052-.63c.013-.165.022-.321.052-.482a1 1 0 0 1 .017-.096c.013-.061.035-.122.052-.182q.02-.05.035-.109a.3.3 0 0 0 .026-.096 2 2 0 0 0 .035-.174q.008-.034.009-.074.014-.097.022-.196c.013-.135.017-.265.017-.4a12 12 0 0 0 0-.526c0-.087 0-.169-.004-.256a6 6 0 0 0-.009-.287l-.013-.226q0-.06-.009-.126-.02-.352-.048-.704l-.013-.13a1 1 0 0 0-.009-.109c-.013-.178-.035-.361-.052-.539 0-.009-.004-.022-.004-.03 0-.013-.004-.03-.004-.043-.004-.035-.004-.07-.013-.104a3 3 0 0 0-.017-.174l.143-1.16 8.127-8.51 8.179-3.224 3.591-1.416s10.613-3.762 11.757-2.168c.303.426.533 1.269.703 2.272z"></path><path d="M141.414 116.951a.25.25 0 0 1-.195.291c-.872.165-3.938.808-6.081 2.007-3.258 1.82-6.484 3.645-9.637 5.661-1.591 1.021-3.192 2.042-4.836 2.98a42 42 0 0 1-4.35 2.19c-1.565.665-3.092 1.434-4.671 2.085-.851.352-1.8.856-2.728 1.021a.22.22 0 0 1-.239-.143c-.915-2.489-2.129-4.566-4.198-6.247a15.4 15.4 0 0 1-2.637-2.776c-1.587-2.15-2.624-4.714-2.932-7.368-.239-2.068.056-4.149.148-6.225v-.013q.026-.443.026-.886v-.013a.1.1 0 0 0 0-.052 14 14 0 0 0-.113-2.064c-.217-1.612-.798-3.176-1.136-4.766l-.235-1.099c-.248-1.156-.49-2.307-.738-3.462 0 0 .087-1.829.746-1.712.598.109.949 3.237 1.041 3.688q.073.357.139.712h.004c.399 2.051.764 4.105 1.015 6.173.056.434.235.856.555 1.156.794.734 1.878.456 2.793.5q.62.025 1.245 0c3.093-.139 6.275.122 9.363-.348 1.475-.222 2.655-.93 3.578-1.846a9 9 0 0 0 1.249-1.568c.512-.799.885-1.633 1.145-2.381.633-1.833 1.93-6.538 2.225-9.201a2.12 2.12 0 0 0-1.075-2.068l-5.452-3.063-3.058-1.616-1.058-.556s.135-.474 2.094 0c1.561.378 4.636 1.729 7.247 3.493.525.352 1.028.721 1.5 1.103.248.204.525.361.833.456.407.126 1.062.33 1.874.608 3.535 1.203 10.014 3.71 11.631 6.382 2.246 3.727 2.477 9.705 2.477 9.705l.837 3.115c.494 1.851 1.019 3.697 1.479 5.556.052.195.087.391.122.591h.001Z" data-color="6" class="icon6"></path><path opacity=".2" d="M88.557 80.529c-.438-.295-.553-1.26-.277-1.687.302-.466 1.175-.488 1.643-.343 0 0 1.122.348.612 1.349-.328.644-.521.082-.617-.401a.68.68 0 0 0-.687-.544c-.294.009-.708.043-.841.353-.189.44.091.854.165 1.273Z"></path><path opacity=".2" d="M91.266 78.791c-.09.333-.05.919.131 1.223-.089-.15.538-.563.634-.614.255-.134.619-.134.838-.318-.153-.054-1.621-.222-1.602-.292Z"></path><path opacity=".2" d="M98.79 100.76c-1.08-.465-1.188.773-1.188.773-.248-1.156-.49-2.307-.738-3.462 0 0 .087-1.829.746-1.712.598.109.949 3.237 1.041 3.688q.073.357.139.712Z"></path><path opacity=".2" d="M99.09 109.462s0 .017-.004.052a.1.1 0 0 0 0-.052z"></path><path opacity=".2" d="m123.982 114.724-3.294 3.184a.717.717 0 0 1-1.208-.409c-.396-2.632-1.309-8.351-2.134-11.105a9 9 0 0 0 1.249-1.568c.104.074.169.117.169.117s3.127 6.364 5.217 8.352a.99.99 0 0 1 .002 1.428Z"></path><path opacity=".2" d="M118.553 123.046c.515-.655.989-1.377 1.357-1.977.147-.239-.144-.501-.368-.333-.912.683-2.116 1.426-3.276 2.093a1.43 1.43 0 0 1-.985.17q-.158-.03-.321-.057a.43.43 0 0 1-.301-.636 60 60 0 0 0 1.04-1.9c.087-.165-.129-.317-.259-.182-.614.644-1.381 1.29-2.202 1.906a3.3 3.3 0 0 1-1.832.651l-.172.009c-11.268.656-12.175-9.197-12.175-12.364-.091 2.077-.386 4.158-.148 6.225.307 2.654 1.345 5.218 2.932 7.368a15.4 15.4 0 0 0 2.637 2.776c2.069 1.681 3.283 3.758 4.198 6.247a.22.22 0 0 0 .239.143c.928-.165 1.878-.669 2.728-1.021 1.578-.652 3.105-1.421 4.671-2.085a42 42 0 0 0 4.35-2.19c-.246-1.238-.817-2.452-1.952-3.389a1.045 1.045 0 0 1-.162-1.455h.002Z"></path><path opacity=".2" d="M116.49 118.857q.111-.196.192-.39s-.07.145-.192.39"></path><path opacity=".2" d="M129.331 110.644a2 2 0 0 0 .576-.175c.789-.379 1.565-.786 2.381-1.104.872-.34 1.767-.554 2.703-.571.864-.016 1.758.071 2.52-.434-.586-.895-2.024-.98-2.995-1.031-2.088-.11-4.075 1.104-5.361 2.685-.453.558-.194.68.175.632z"></path><path opacity=".2" d="M120.662 89.434c-2.884-1.203-6.271-2.311-8.284-2.937l-1.058-.556s.135-.474 2.094 0c1.561.378 4.636 1.729 7.247 3.493Z"></path><path opacity=".2" d="M123.661 138.522s-.099-3.925.624-5.52 1.284 4.968 1.284 4.968z"></path><path d="M154.734 167.693c-1.874 1.39-3.92 2.585-6.111 3.397q-.938.355-1.909.604c-2.897.747-6.233.117-9.073-.699-.564-.161-4.571-1.942-5.846-2.198a.446.446 0 0 0-.49.256 41 41 0 0 0-1.509 3.793c-.49 1.438-.777 2.528-1.015 3.258-.174.539-.59.943-1.132.791l-6.891-1.907c-4.385-1.212-8.995-1.229-13.453-2.068-3.834-.721-7.677-1.564-11.407-2.724-5.811-1.807-11.385-3.762-16.125-7.72a58 58 0 0 1-3.656-3.367c-1.882-1.872-3.352-3.171-2.971-6.091q.04-.312.1-.63c.468-2.585 1.8-5.374 4.046-6.764 2.568-1.59 6.262-.912 9.039-.295 2.966.66 5.894 1.772 8.708 2.763 2.801.99 5.985 1.286 8.982 1.733.307.048.603-.009.864-.143h.004c.377-.187.664-.543.764-.982q.093-.412.191-.83.073-.32.152-.639.057-.252.122-.5.066-.28.139-.56c.069-.282.143-.569.217-.851.217-.852.442-1.69.664-2.489.043-.165.091-.33.135-.491q.093-.345.191-.678.093-.326.178-.639.063-.228.126-.443l.161-.556q.163-.567.303-1.043c.048-.156.091-.308.13-.447l.039-.135q.045-.138.078-.256.105-.36.178-.595a.446.446 0 0 1 .464-.282q.09.014.2.035l.152.026c.542.087 1.384.2 2.477.269q.169.014.342.022h.03c.126.009.261.013.39.017l.412.013q.209.007.425.009a36 36 0 0 0 3.404-.122 39.3 39.3 0 0 0 9.307-1.925c5.772-1.929 10.323-2.646 13.146-2.902a30 30 0 0 1 2.775-.143c.256 0 .455.217.442.474-.287 5.522 2.585 9.809 4.107 11.682a1.316 1.316 0 0 0 1.791.23c3.352-2.381 12.382-3.949 16.138 1.925q.163.252.312.526c4.437 8.124-4.346 15.922-10.236 20.292Z" data-color="3" class="icon3"></path><path opacity=".2" d="M129.796 172.845c-.49 1.438-.777 2.528-1.015 3.258-.174.539-.59.943-1.132.791l-6.891-1.907c-4.385-1.212-8.995-1.229-13.453-2.068-3.834-.721-7.677-1.564-11.407-2.724-5.811-1.807-11.385-3.762-16.125-7.72a58 58 0 0 1-3.656-3.367c-1.882-1.872-3.352-3.171-2.971-6.091q.04-.312.1-.63c.716-.617 1.969-.843 4.142.117 3.175 1.402 6.181 3.226 9.151 5.01 3.107 1.866 6.234 3.741 9.202 5.819 1.275.893 2.539 1.806 3.872 2.611 1.521.918 3.051 1.492 4.874 1.686l1 .144c4.088.795 8.421.787 12.262 2.567.782.362 1.538.781 2.347 1.082.868.323 1.736.384 2.645.502l4.448.579c.161.021 2.581.417 2.608.34Z"></path><path opacity=".2" d="M155.085 146.393c-.507.304-1.271.4-1.843.582-.625.204-1.245.43-1.835.726a16 16 0 0 0-3.262 2.155c-.307.261-.69.404-1.088.413-7.412.161-16.264 5.708-16.264 5.708a49 49 0 0 1-1.531 1.208c-3.166 2.376-6.736 4.153-10.331 5.804-.23.109-.468.213-.725.222-.325.013-.629-.143-.919-.291-1.982-1.021-4.029-1.925-5.959-3.045-1.948-1.13-3.877-2.285-5.942-3.202-2.065-.925-4.194-1.707-6.327-2.459-2.207-.782-4.437-1.507-6.658-2.25-1.114-.374-2.22-.752-3.326-1.138-.859-.304-2.238-.447-2.88-1.143.611-.174 1.471.165 2.069.313.659.169 1.267.56 1.961.595-.013 0-.32-.46-.355-.517-.109-.174-.222-.404-.208-.608.607.182 1.093.847 1.652 1.16.611.339 1.258.608 1.917.838 1.301.46 2.672.778 3.977 1.173 3.626 1.103 6.982 2.928 10.353 4.666 1.136.587 2.285 1.169 3.5 1.577 1.184.404 2.32.482 3.552.578 1.882.148 3.787.139 5.651-.182.329-.056.646-.204.881-.443.642-.665.213-1.325-.187-1.807a7.2 7.2 0 0 0-2.09-1.733c-4.411-2.433-9.195-4.058-13.978-5.609.377-.187.664-.543.764-.982q.093-.412.191-.83.073-.32.152-.639.057-.252.122-.5.066-.28.139-.56c.069-.282.143-.569.217-.851.217-.852.442-1.69.664-2.489.043-.165.091-.33.135-.491q.093-.345.191-.678.093-.326.178-.639.063-.228.126-.443l.161-.556q.163-.567.303-1.043c.048-.156.091-.308.13-.447l.039-.135q.039-.135.078-.256.105-.36.178-.595a.446.446 0 0 1 .464-.282q.09.014.2.035l.152.026c.542.087 1.384.2 2.477.269q.169.014.342.022h.03q.189.012.39.017c.201.005.274.009.412.013s.278.009.425.009a36 36 0 0 0 3.404-.122c2.359.209 3.232 1.959 5.552 2.472 3.595.786 6.797 2.867 10.375 3.732 2.433.591 4.975.604 7.421 1.095.329.069.394.513.096.669a91 91 0 0 0-7.668 4.527v.004l6.033-.5c.307-.026.425.395.143.53-1.119.521-2.168 1.182-3.184 1.916 3.907-1.251 8.557-2.064 10.396-2.355.442-.069.794-.374.971-.786.321-.747 1.045-2.037 2.008-1.99.083.004-.243.569-.278.617-.23.33-.533.617-.79.93-.07.091-.143.222-.07.308.056.065.148.052.23.009a.5.5 0 0 0 .113-.078 10.6 10.6 0 0 1 3.968-2.077c.759-.209 2.086-.617 2.819-.165v-.002Z"></path><path opacity=".2" d="M154.734 167.693c-1.874 1.39-3.92 2.585-6.111 3.397-2.788-.413-7.417-1.03-10.205-1.004-4.129.043-17.366-5.652-17.777-5.83 2.883.822 6.075.805 9.047.857 2.196.038 4.547.288 6.791.003 2.344-.298 4.351-1.386 6.501-2.283 1.576-.657 3.144-1.392 4.73-2.009 1.037-.404 2.235-.777 3.226-1.394 1.221-.761 2.045-1.949 2.994-3.003 1.002-1.113 2.273-2.164 3.053-3.446 1.093-1.798.482-3.554 2.505-4.863 1.076-.696 4.795-2.187 5.568-.607 4.064 8.315-4.304 15.716-10.322 20.181h.001Z"></path><path d="M163.183 172.363c-.308 1.455-.712 3.037-1.596 4.249a4.8 4.8 0 0 1-1.427 1.321c-.941.556-2.047.812-3.119.973a50 50 0 0 1-5.586.495c-2.112.065-4.224-.009-6.336-.03a402 402 0 0 1-6.497-.13c-2.056-.061-4.098.009-6.072-.647-.759-.256-4.007-.873-3.834-2.12.026-.174.078-.413.161-.699.572-2.159 2.438-7.068 2.438-7.068.083-.069.274-.096.512-.1.529-.017 1.28.078 1.535.074q1.08-.027 2.159-.061c1.475-.043 2.953-.096 4.433-.1 2.828-.013 5.703.404 8.514.009 3.21-.447 6.215-1.156 9.455-.665.729.109 1.587.269 2.403.547 1.254.426 2.403 1.13 2.806 2.355.169.517.161 1.073.052 1.599l-.002-.002Z" data-color="1" class="icon1"></path><path opacity=".2" d="M161.586 176.612a4.8 4.8 0 0 1-1.427 1.321c-.941.556-2.047.812-3.119.973a50 50 0 0 1-5.586.495c-2.112.065-4.224-.009-6.336-.03a402 402 0 0 1-6.497-.13c-2.056-.061-4.098.009-6.072-.647-.759-.256-4.007-.873-3.834-2.12.026-.174.078-.413.161-.699a36 36 0 0 0 4.161 1.494c1.719.492 3.347.616 5.127.67a148 148 0 0 0 17.695-.514 57 57 0 0 0 2.872-.35q.732-.102 1.462-.218c.226-.036 1.268-.068 1.393-.243z"></path><path opacity=".2" d="m160.324 168.41-1.335.887a10 10 0 0 1-3.42 1.461c-1.339.287-2.828.234-4.199.285-4.572.168-9.141.009-13.702-.323a10.94 10.94 0 0 1-5.436-1.841l-.407-.274c.529-.017 1.28.078 1.535.074q1.08-.027 2.159-.061c1.475-.043 2.953-.096 4.433-.1 2.828-.013 5.703.404 8.514.009 3.21-.447 6.215-1.156 9.455-.665.729.109 1.587.269 2.403.547Z"></path><path opacity=".2" d="M88.271 61.582c-.559.079-1.185.437-1.673.696-.909.484-1.873 1.171-2.242 2.177-.297.81-.074 1.74.354 2.46.433.728 1.001 1.043 1.723 1.403 1.292.645 2.861 1.672 3.134 3.21q.012.071.021.142c.276 2.361.551 4.324.551 4.324l-8.174-3.619-1.929-5.152 3.062-3.68 2.357-1.564 2.816-.399z"></path><path d="M77.239 89.208c-2.98.865-7.356-.487-8.523-4.518-.394-1.377-.368-2.885-.039-4.31.629-2.754 2.377-5.2 4.346-5.769.842-.243 1.713-.213 2.559.043 2.146.66 4.111 2.798 4.949 5.687 1.162 4.032-.307 8.002-3.291 8.867Z"></path><path d="M93.985 87.592c-1.236.56-2.55.956-3.903 1.125-3.465.421-6.449-.812-9.151-2.893-2.988-2.307-5.165-5.626-5.2-9.505q-.006-.451.013-.908c.065-2.372.512-4.827 1.7-6.881.616-1.064 1.471-1.951 2.281-2.863.785-.891 1.6-1.751 2.425-2.602.651-.665 1.175-1.238 2.052-1.573.738-.282 1.609-.447 2.377-.217.295.091.651.191.82.443a.106.106 0 0 1-.061.161c-.447.104-1.809.891-1.935.982-.603.443-1.106 1.038-1.366 1.746-.386 1.047-.161 2.346.407 3.284.885 1.46 2.568 1.06 3.665 2.046.664.595.997 1.425 1.323 2.229.36.886.851 1.751 1.015 2.707.083.478.069.973.065 1.46a.966.966 0 0 1-.941.969c-.703.009-1.297.07-1.856.604-.989.951-.733 2.437.312 3.241.351.269.79.3 1.188.452.239.091.447.243.646.417.174.148.338.313.503.46.997.895 1.935 1.877 3.014 2.667.455.33.864.704.967 1.277.074.4.083.977-.36 1.173Z" data-color="7" class="icon7"></path><path d="M93.985 87.592c-1.236.56-2.55.956-3.903 1.125-3.465.421-6.449-.812-9.151-2.893-2.988-2.307-5.165-5.626-5.2-9.505q-.006-.451.013-.908l.248.348c5.183 7.372 12.313 6.538 13.87 6.256.174.148.338.313.503.46.997.895 1.935 1.877 3.014 2.667.455.33.864.704.967 1.277.074.4.083.977-.36 1.173Z"></path><path d="M74.677 82.527c-1.913.413-4.372-.63-5.998-2.146.629-2.754 2.377-5.2 4.346-5.769.842-.243 1.713-.213 2.559.043.668 2.055 2.03 7.233-.906 7.872Z" data-color="7" class="icon7"></path><path d="M86.349 62.056c-.791.214-1.113 1.249-.584 1.864.118.153.262.298.377.48.362.517.12 1.475-.455 1.652.632-.586.471-1.452-.063-2.031a1.31 1.31 0 0 1-.174-1.208c.135-.371.541-.758.899-.758Z" data-color="7" class="icon7"></path><path d="M89.431 75.933c.376.732 1.201.999 1.776 1.571.725.696.677 1.491.002 2.19-.569.585-.597 1.414-.209 2.098.36.684 1.044 1.145 1.678 1.619-1.017-.428-2.274-1.425-2.152-2.724.013-.871 1.034-1.279 1.076-2.094-.023-1.297-1.77-1.597-2.171-2.661Z" data-color="7" class="icon7"></path><path d="M93.573 87.346c.625.22.55 1.176.121 1.546.056-.208.223-.342.157-.79a3 3 0 0 0-.292-.739z" data-color="8" class="icon8"></path></g></g>
</svg>
</g></svg></svg>